<svg xmlns="http://www.w3.org/2000/svg">
    <symbol id="star" viewBox="0 0 22 21">
        <path d="M10.085 1.213c.3-.92 1.602-.92 1.902 0l1.751 5.374a1 1 0 0 0 .95.69h5.661c.97 0 1.372 1.241.587 1.81l-4.575 3.315a1 1 0 0 0-.364 1.12l1.749 5.366c.3.92-.753 1.688-1.538 1.12l-4.585-3.323a1 1 0 0 0-1.174 0l-4.585 3.323c-.784.568-1.838-.2-1.538-1.12l1.749-5.367a1 1 0 0 0-.364-1.12L1.136 9.088c-.785-.569-.383-1.81.587-1.81h5.66a1 1 0 0 0 .951-.69l1.751-5.374Z" fill="#120D0E"/>
    </symbol>
    <symbol id="star-gray" viewBox="0 0 22 21">
    <path d="M9.474 1.213c.3-.92 1.601-.92 1.901 0l1.751 5.374a1 1 0 0 0 .951.69h5.661c.97 0 1.372 1.241.587 1.81l-4.575 3.315a1 1 0 0 0-.364 1.12l1.748 5.366c.3.92-.753 1.688-1.537 1.12l-4.586-3.323a1 1 0 0 0-1.173 0l-4.586 3.323c-.784.568-1.837-.2-1.537-1.12l1.748-5.367a1 1 0 0 0-.364-1.12L.524 9.088c-.785-.569-.382-1.81.587-1.81h5.66a1 1 0 0 0 .952-.69l1.75-5.374Z" fill="#BEBEBE"/>
    </symbol>
    <symbol id="vector" viewBox="0 0 32 21">
        <path d="M3.76.907 16 13.12 28.24.907 32 4.667l-16 16-16-16L3.76.907Z" fill="#120D0E"/>
    </symbol>
    <symbol id="russia" viewBox="0 0 182 182">
        <path d="M91 182c50.258 0 91-40.742 91-91S141.258 0 91 0 0 40.742 0 91s40.742 91 91 91Z" fill="#F0F0F0"/><path d="M176.34 122.652C179.998 112.794 182 102.131 182 91s-2.002-21.794-5.66-31.652H5.66C2.002 69.206 0 79.868 0 91c0 11.131 2.002 21.794 5.66 31.652L91 130.565l85.34-7.913Z" fill="#0052B4"/><path d="M91 182c39.127 0 72.482-24.695 85.34-59.348H5.66C18.518 157.305 51.873 182 91 182Z" fill="#D80027"/>
    </symbol>
    <symbol id="united-kingdom" viewBox="0 0 182 182">
        <path d="M91 182c50.258 0 91-40.742 91-91S141.258 0 91 0 0 40.742 0 91s40.742 91 91 91Z" fill="#F0F0F0"/><path d="M18.811 35.597A90.668 90.668 0 0 0 3.135 67.261h47.34L18.811 35.597ZM178.865 67.261a90.68 90.68 0 0 0-15.676-31.663L131.525 67.26h47.34ZM3.135 114.74a90.68 90.68 0 0 0 15.676 31.663l31.663-31.663H3.134ZM146.403 18.812a90.679 90.679 0 0 0-31.664-15.677v47.34l31.664-31.663ZM35.597 163.188a90.682 90.682 0 0 0 31.664 15.677v-47.34l-31.664 31.663ZM67.26 3.135A90.676 90.676 0 0 0 35.598 18.81l31.664 31.664V3.135ZM114.739 178.865a90.693 90.693 0 0 0 31.664-15.676l-31.664-31.664v47.34ZM131.525 114.74l31.664 31.663a90.68 90.68 0 0 0 15.676-31.663h-47.34Z" fill="#0052B4"/><path d="M181.23 79.13h-78.36V.77a91.914 91.914 0 0 0-23.74 0v78.36H.77a91.908 91.908 0 0 0 0 23.739h78.36v78.361a91.87 91.87 0 0 0 23.739 0v-78.36h78.361a91.875 91.875 0 0 0 0-23.74Z" fill="#D80027"/><path d="m114.739 114.74 40.608 40.607a91.562 91.562 0 0 0 5.349-5.842l-34.766-34.766h-11.191v.001ZM67.26 114.74l-40.607 40.607a91.455 91.455 0 0 0 5.842 5.349l34.766-34.766v-11.19ZM67.26 67.261 26.654 26.653a91.251 91.251 0 0 0-5.349 5.842L56.07 67.261h11.19ZM114.739 67.261l40.608-40.608a91.234 91.234 0 0 0-5.842-5.348L114.739 56.07v11.19Z" fill="#D80027"/>
=   </symbol>
    <symbol id="germany" viewBox="0 0 182 182">
        <path d="M5.753 124.674C18.823 159.897 52.728 185 92.5 185s73.677-25.103 86.747-60.326L92.5 116.631l-86.747 8.043Z" fill="#FFDA44"/><path d="M92.5 0C52.728 0 18.823 25.102 5.753 60.326L92.5 68.37l86.747-8.043C166.177 25.102 132.272 0 92.5 0Z" fill="#000"/><path d="M5.753 60.326C2.035 70.346 0 81.186 0 92.5c0 11.315 2.035 22.153 5.753 32.174h173.494C182.965 114.653 185 103.815 185 92.5c0-11.315-2.035-22.153-5.753-32.174H5.753Z" fill="#D80027"/>
    </symbol>
    <symbol id="github" viewBox="0 0 56 56">
        <path d="M28.763 0C12.88 0 0 12.836 0 28.672 0 41.34 8.242 52.087 19.67 55.878c1.438.266 1.965-.622 1.965-1.38 0-.683-.026-2.941-.039-5.337-8.002 1.734-9.69-3.383-9.69-3.383-1.309-3.314-3.194-4.195-3.194-4.195-2.61-1.78.197-1.743.197-1.743 2.888.202 4.41 2.954 4.41 2.954 2.564 4.384 6.728 3.116 8.37 2.384.257-1.853 1.003-3.118 1.825-3.834-6.388-.725-13.104-3.184-13.104-14.17 0-3.13 1.123-5.688 2.963-7.696-.298-.722-1.283-3.638.279-7.587 0 0 2.415-.77 7.912 2.939 2.294-.636 4.755-.954 7.2-.965 2.444.01 4.906.33 7.205.965 5.49-3.71 7.902-2.94 7.902-2.94 1.566 3.95.58 6.866.282 7.588 1.844 2.008 2.96 4.566 2.96 7.696 0 11.012-6.729 13.437-13.133 14.147 1.031.89 1.95 2.635 1.95 5.31 0 3.836-.033 6.923-.033 7.868 0 .763.518 1.657 1.976 1.375 11.422-3.795 19.653-14.539 19.653-27.202C57.526 12.836 44.648 0 28.763 0Z" fill="#161614"/>
    </symbol>
    <symbol id="linkedin" viewBox="0 0 113 113">
        <svg xmlns="http://www.w3.org/2000/svg" viewBox="0 0 112.196 112.196" style="enable-background:new 0 0 112.196 112.196" xml:space="preserve"><circle style="fill:#007ab9" cx="56.098" cy="56.097" r="56.098"/><path style="fill:#f1f2f2" d="M89.616 60.611v23.128H76.207V62.161c0-5.418-1.936-9.118-6.791-9.118-3.705 0-5.906 2.491-6.878 4.903-.353.862-.444 2.059-.444 3.268v22.524h-13.41s.18-36.546 0-40.329h13.411v5.715c-.027.045-.065.089-.089.132h.089v-.132c1.782-2.742 4.96-6.662 12.085-6.662 8.822 0 15.436 5.764 15.436 18.149zm-54.96-36.642c-4.587 0-7.588 3.011-7.588 6.967 0 3.872 2.914 6.97 7.412 6.97h.087c4.677 0 7.585-3.098 7.585-6.97-.089-3.956-2.908-6.967-7.496-6.967zm-6.791 59.77H41.27v-40.33H27.865v40.33z"/></svg>    </symbol>
    <symbol id="telegram" viewBox="0 0 56 56">
        <path d="M28 56c15.464 0 28-12.536 28-28S43.464 0 28 0 0 12.536 0 28s12.536 28 28 28Z" fill="#34AADF"/><path d="M11.653 27.757s14-5.745 18.855-7.769c1.862-.809 8.174-3.399 8.174-3.399s2.913-1.132 2.67 1.619c-.08 1.133-.728 5.098-1.375 9.387-.971 6.07-2.023 12.706-2.023 12.706s-.162 1.86-1.538 2.184c-1.376.324-3.642-1.132-4.046-1.456-.324-.243-6.07-3.885-8.173-5.665-.567-.485-1.214-1.456.08-2.59 2.914-2.67 6.393-5.988 8.497-8.092.972-.971 1.943-3.237-2.104-.486-5.745 3.966-11.41 7.688-11.41 7.688s-1.295.81-3.722.081c-2.428-.728-5.26-1.7-5.26-1.7s-1.943-1.213 1.375-2.508Z" fill="#fff"/>
    </symbol>
</svg>